<svg version="1.1" id="Layer_1" xmlns="http://www.w3.org/2000/svg" xmlns:xlink="http://www.w3.org/1999/xlink" x="0px" y="0px"
	 width="100%" viewBox="0 0 1024 1024" enable-background="new 0 0 1024 1024" xml:space="preserve">
<path fill="#000000" opacity="1.000000" stroke="none" 
	d="
M303.187073,417.719910 
	C330.548126,418.550201 351.325165,406.800354 368.057343,385.004761 
	C369.257538,390.556000 367.783173,394.462524 367.067078,398.340088 
	C360.980194,431.301666 352.600220,463.657410 339.886108,494.724365 
	C319.573303,544.358704 290.775940,587.697083 245.890961,618.732239 
	C219.954803,636.665405 191.356064,648.433411 160.645142,655.409607 
	C146.481079,658.627075 132.150940,660.447571 117.759567,661.999390 
	C115.583145,662.234009 113.268784,662.865906 111.014236,661.702271 
	C111.875008,659.234741 114.027580,659.385376 115.607231,658.802307 
	C145.060913,647.928772 171.695709,632.571411 193.446701,609.578491 
	C216.078674,585.654358 230.118271,557.457214 234.660477,524.738831 
	C239.756577,488.030670 232.656204,453.227325 217.778397,419.718414 
	C208.949875,399.834137 197.662109,381.411652 184.364304,364.206085 
	C183.604767,363.223358 182.241699,362.425110 182.967178,360.732910 
	C184.781616,360.027618 185.652740,361.604401 186.710709,362.443420 
	C208.061111,379.375183 230.656082,394.332306 255.620438,405.436340 
	C270.614929,412.105774 286.173218,416.855530 303.187073,417.719910 
z"/>
<path fill="#000000" opacity="1.000000" stroke="none" 
	d="
M609.758057,574.136230 
	C557.776123,577.182129 521.719666,538.029114 515.366089,497.427856 
	C509.084534,457.287048 520.324707,423.042908 554.258118,398.526703 
	C574.293396,384.051575 597.213806,381.574585 621.086243,385.196716 
	C640.732422,388.177582 657.269897,397.076477 671.007751,411.419891 
	C673.861938,414.399872 674.383057,416.441711 671.224487,419.675446 
	C664.128479,426.940369 657.445007,434.607849 650.579468,442.098572 
	C646.515747,446.532379 646.483582,446.536438 642.909424,441.800079 
	C630.915161,425.905426 614.910278,420.041962 595.766235,424.399353 
	C580.781372,427.810089 571.329163,438.710114 565.737976,452.254486 
	C556.165710,475.442902 557.715820,497.932617 573.609985,518.203857 
	C588.347046,536.999390 614.807129,539.699707 633.214844,524.616882 
	C638.939880,519.925842 642.668945,513.956360 643.853394,506.518646 
	C644.464600,502.680420 643.111084,500.996613 639.056335,501.060211 
	C629.228149,501.214386 619.395813,501.113953 609.565186,501.100739 
	C602.750732,501.091614 602.709534,501.042999 602.707581,494.033325 
	C602.705627,486.868622 602.835693,479.701111 602.669800,472.540375 
	C602.583069,468.794586 603.861023,467.001282 607.803345,467.008606 
	C632.962952,467.055237 658.122803,466.999664 683.282532,466.992401 
	C685.788818,466.991669 688.141296,467.436493 688.138367,470.654297 
	C688.126648,483.313446 689.537170,496.201782 687.640015,508.578979 
	C684.639954,528.151672 674.607727,544.420715 658.337769,556.327942 
	C644.004150,566.817993 627.882935,572.558289 609.758057,574.136230 
z"/>
<path fill="#000000" opacity="1.000000" stroke="none" 
	d="
M503.102661,424.124420 
	C500.761322,425.588501 498.547974,425.168457 496.411682,425.173035 
	C480.079041,425.208160 463.745300,425.294891 447.414215,425.132996 
	C443.011047,425.089355 441.053802,426.367218 441.238892,431.105225 
	C441.544403,438.926208 441.452240,446.771118 441.262970,454.599548 
	C441.168030,458.526367 442.738098,459.876770 446.569366,459.849152 
	C462.734558,459.732635 478.903015,459.942566 495.065948,459.719086 
	C499.788879,459.653809 501.576599,461.053833 501.384827,465.951569 
	C501.046021,474.604614 501.070251,483.288483 501.381714,491.943665 
	C501.548157,496.569031 499.906708,498.089355 495.369873,498.035400 
	C479.706116,497.849091 464.038818,497.959259 448.372894,497.950928 
	C441.687164,497.947388 441.324799,498.274811 441.296661,504.979614 
	C441.267273,511.979218 441.277283,518.979126 441.302094,525.978760 
	C441.325714,532.657532 441.411316,532.753235 447.935028,532.759888 
	C464.601074,532.776855 481.269318,532.917664 497.931854,532.675842 
	C502.805786,532.605103 504.359344,534.312805 504.216034,539.042786 
	C503.948669,547.867432 504.041443,556.708313 504.206696,565.538269 
	C504.282318,569.578125 502.762482,571.203308 498.643646,571.192139 
	C466.811737,571.105896 434.979340,571.107605 403.147522,571.210144 
	C399.138763,571.223083 397.957428,569.514526 397.961609,565.793457 
	C398.026459,507.962463 398.042175,450.131317 397.983673,392.300323 
	C397.979492,388.192047 399.571747,386.785034 403.633209,386.797943 
	C435.298340,386.898499 466.963959,386.842560 498.629425,386.845032 
	C500.992462,386.845215 503.930786,386.726379 503.944794,389.924377 
	C503.994110,401.215363 504.980072,412.530792 503.102661,424.124420 
z"/>
<path fill="#000000" opacity="1.000000" stroke="none" 
	d="
M743.356323,487.717529 
	C731.633789,481.591339 721.547913,474.113373 714.802429,462.876099 
	C702.193237,441.870605 708.731689,412.020844 730.531982,396.343231 
	C751.961060,380.932526 774.927734,381.421967 798.755798,388.484406 
	C806.749023,390.853577 814.487793,393.856934 821.578308,398.417511 
	C824.782654,400.478485 825.914612,402.477173 823.937622,406.154694 
	C819.364502,414.661682 815.002380,423.286224 810.741577,431.954895 
	C809.125183,435.243439 807.405151,435.216766 804.456299,433.556549 
	C793.607849,427.448914 782.225464,422.935516 769.458923,423.223419 
	C765.401062,423.314911 761.537170,424.156250 757.945618,426.110229 
	C748.917969,431.021759 747.859009,441.666992 756.011780,447.890717 
	C764.156128,454.108063 773.582153,458.061340 782.949707,461.982544 
	C795.827942,467.373291 807.459839,474.482361 817.739563,484.070129 
	C841.728638,506.444336 830.727905,549.052551 807.731934,562.371094 
	C789.981445,572.651672 771.035645,575.411255 750.952698,573.674500 
	C731.509766,571.993103 714.174194,564.917358 698.121277,554.215027 
	C691.922607,550.082458 691.891052,549.875549 695.564575,543.683960 
	C700.664368,535.088806 705.767273,526.495422 710.907288,517.924316 
	C711.662415,516.665039 712.628662,515.532410 713.443298,514.415161 
	C716.344849,514.530151 717.689270,516.706482 719.587952,517.926575 
	C733.101562,526.610168 746.618591,535.243347 763.779724,533.848694 
	C767.803223,533.521729 771.722107,532.814209 775.373901,531.105835 
	C785.375427,526.427124 787.038879,513.309387 778.474792,506.356140 
	C769.960083,499.442993 759.684143,495.697571 750.019653,490.860718 
	C747.935242,489.817535 745.798645,488.878601 743.356323,487.717529 
z"/>
<path fill="#000000" opacity="1.000000" stroke="none" 
	d="
M89.145996,496.856201 
	C76.285820,482.348206 61.426666,470.653137 45.566452,459.665344 
	C48.424820,456.889679 51.224255,457.828674 53.684017,457.870911 
	C71.092445,458.169769 87.850533,455.191132 103.743591,448.009064 
	C127.142570,437.435120 143.178894,419.555206 154.062851,396.678894 
	C157.069473,390.359436 159.747879,383.904358 161.790573,377.196625 
	C162.211502,375.814362 162.387711,374.226227 163.977127,373.468475 
	C165.979797,373.634064 166.617188,375.368683 167.538467,376.652802 
	C189.574402,407.367493 205.798538,440.700287 211.730545,478.329224 
	C219.402603,526.995789 208.715332,570.381653 172.754074,605.698547 
	C157.090286,621.081665 138.203888,631.627563 117.807159,639.521057 
	C117.198776,639.756531 116.529091,639.874268 115.877327,639.938049 
	C115.593803,639.965881 115.283310,639.718201 114.789291,639.515198 
	C114.859467,637.298523 116.848297,636.772278 118.223679,635.842773 
	C142.794205,619.236450 164.386322,599.697754 179.222351,573.583984 
	C194.655334,546.419556 198.816635,517.397644 193.572952,486.740295 
	C189.218750,461.283417 179.378738,437.942474 167.021103,415.508179 
	C166.648926,414.832520 165.991653,414.313873 164.866730,413.044128 
	C149.414627,441.808044 127.978638,463.417328 95.501778,473.905212 
	C129.618134,511.744293 145.301392,554.169617 135.286194,604.237061 
	C130.707626,563.888000 116.648277,527.669678 89.145996,496.856201 
z"/>
<path fill="#000000" opacity="1.000000" stroke="none" 
	d="
M295.669189,319.262146 
	C317.036255,317.153320 335.066772,331.869019 336.240784,351.934906 
	C337.446594,372.544495 322.059174,389.329071 301.201752,390.155334 
	C284.885712,390.801666 269.106323,377.845367 265.944397,361.205811 
	C262.663818,343.941986 272.499207,326.746857 288.977356,321.032928 
	C291.014771,320.326477 293.151489,319.906372 295.669189,319.262146 
z"/>
<path fill="#000000" opacity="1.000000" stroke="none" 
	d="
M764.370056,657.896606 
	C764.041565,660.845947 765.361389,663.952637 761.737610,665.128845 
	C756.569763,666.806274 749.503845,665.122009 747.286682,661.658447 
	C741.812134,653.106445 736.357605,644.541626 730.876160,635.994019 
	C730.291626,635.082581 730.117432,633.744995 727.986328,633.535217 
	C727.986328,641.706116 728.049622,649.790222 727.948853,657.872192 
	C727.917419,660.397888 728.995361,663.875366 725.710510,664.856201 
	C722.094910,665.935791 718.110535,665.929688 714.411804,664.708313 
	C712.779114,664.169128 712.844910,662.316467 712.843994,660.806091 
	C712.833740,643.814758 712.853210,626.823425 712.812561,609.832214 
	C712.805725,606.985168 714.074463,605.633057 716.879395,605.212158 
	C724.849976,604.016052 727.367737,605.179321 731.702026,612.065674 
	C736.313293,619.392090 741.016602,626.661072 745.735046,633.919189 
	C746.509277,635.110046 746.990051,636.697876 749.106506,637.042603 
	C750.086426,634.512390 749.530579,631.881897 749.545715,629.305786 
	C749.576965,623.976440 749.654114,618.647339 749.674011,613.317993 
	C749.701660,605.934692 755.077942,602.569397 762.152222,605.458862 
	C764.568054,606.445618 764.450378,608.395508 764.445251,610.435852 
	C764.406006,626.093933 764.391968,641.752075 764.370056,657.896606 
z"/>
<path fill="#000000" opacity="1.000000" stroke="none" 
	d="
M38.914059,506.876923 
	C47.082275,502.320160 54.963413,498.001343 62.749535,493.517578 
	C65.031799,492.203278 66.820343,492.021179 69.096146,493.662994 
	C95.814346,512.938232 112.423691,538.728882 119.149742,570.930237 
	C119.412704,572.189148 119.883553,573.531128 118.337372,575.854126 
	C107.411148,559.696411 94.588768,545.892334 78.308685,535.628174 
	C61.987221,525.337952 43.987679,519.561523 24.923546,516.530579 
	C24.914654,515.938843 24.905764,515.347107 24.896872,514.755371 
	C29.461487,512.187561 34.026104,509.619720 38.914059,506.876923 
z"/>
<path fill="#000000" opacity="1.000000" stroke="none" 
	d="
M777.128174,606.155029 
	C796.310669,603.268738 810.275513,605.962036 818.856750,618.559692 
	C825.243958,627.936279 826.030151,638.265198 821.096497,648.452820 
	C816.458557,658.029785 808.605713,664.027649 797.800171,665.097717 
	C792.025146,665.669678 786.156494,665.279358 780.330688,665.363770 
	C777.482483,665.405029 775.890259,664.111572 775.891968,661.223267 
	C775.902039,643.741272 775.936584,626.259216 776.014832,608.777466 
	C776.018311,608.000305 776.526062,607.225403 777.128174,606.155029 
M803.030029,623.460449 
	C801.382263,621.729187 799.350586,620.591309 797.126343,619.825378 
	C792.683777,618.295410 791.247742,619.243286 791.205933,623.882080 
	C791.135254,631.710693 791.261169,639.541504 791.148315,647.369141 
	C791.096680,650.949707 792.241638,652.145081 795.944702,651.167236 
	C807.809204,648.034119 811.716064,634.296143 803.030029,623.460449 
z"/>
<path fill="#000000" opacity="1.000000" stroke="none" 
	d="
M485.846161,656.880432 
	C485.839020,655.563843 485.845093,654.730347 485.823517,653.897583 
	C485.470642,640.284180 488.254791,642.389221 473.255737,642.106262 
	C470.273773,642.049988 469.019836,643.328308 469.067871,646.274414 
	C469.141174,650.772034 468.972717,655.274353 469.082031,659.770447 
	C469.178680,663.744629 467.587128,665.733582 463.443665,665.362366 
	C461.954742,665.228943 460.442627,665.243530 458.947174,665.316101 
	C455.410126,665.487610 453.786102,663.995605 453.800537,660.317322 
	C453.865967,643.654114 453.853363,626.990112 453.742737,610.327209 
	C453.718353,606.651978 455.450562,605.179565 458.852173,605.114990 
	C460.517914,605.083374 462.184601,605.099548 463.850281,605.064819 
	C467.418121,604.990417 469.003265,606.827454 469.000153,610.288696 
	C468.996307,614.621033 469.174225,618.958496 469.013123,623.284058 
	C468.874268,627.012146 470.142456,628.818970 474.144287,628.748718 
	C487.888367,628.507507 485.584717,629.889221 485.793457,617.451355 
	C485.824219,615.618774 485.795105,613.785217 485.821259,611.952515 
	C485.907837,605.887939 486.612366,605.203918 492.835144,605.092896 
	C500.472473,604.956726 501.049957,605.503113 501.066071,613.192810 
	C501.096832,627.856750 501.116821,642.520752 501.107666,657.184692 
	C501.102722,665.102966 500.872040,665.334534 494.091339,665.343140 
	C486.021667,665.353394 485.938629,665.273010 485.846161,656.880432 
z"/>
<path fill="#000000" opacity="1.000000" stroke="none" 
	d="
M694.939270,605.109436 
	C700.224243,604.611267 702.409790,606.532349 702.193909,611.645813 
	C701.667908,624.102173 703.162903,636.632202 701.319336,649.031799 
	C699.768616,659.461731 692.785095,665.557800 682.360901,666.193298 
	C679.543152,666.365112 676.693176,666.371826 673.878723,666.167847 
	C663.068787,665.384460 655.395630,658.022888 655.005432,647.224121 
	C654.554871,634.753235 654.830627,622.256897 654.718018,609.772278 
	C654.691833,606.874512 656.010376,605.440247 658.812805,605.243103 
	C659.973999,605.161377 661.139465,605.111938 662.303467,605.103210 
	C669.041138,605.052734 669.851501,605.795898 669.897278,612.399658 
	C669.955017,620.723022 669.927917,629.046997 669.955811,637.370667 
	C669.961975,639.200928 669.984802,641.034973 670.104492,642.860413 
	C670.491333,648.761902 673.099365,651.578491 678.132690,651.610229 
	C683.185059,651.642090 686.418579,648.901001 686.633789,643.172302 
	C687.014526,633.031494 686.834595,622.869263 686.866516,612.715942 
	C686.889221,605.500000 687.058105,605.314758 694.939270,605.109436 
z"/>
<path fill="#000000" opacity="1.000000" stroke="none" 
	d="
M413.883484,646.108643 
	C420.147552,651.878296 427.141479,652.904358 434.493378,650.042908 
	C438.450317,648.502747 440.768677,648.922363 442.163788,653.059998 
	C442.636810,654.462830 443.444977,655.763550 444.182312,657.064209 
	C445.664520,659.678955 444.757690,661.226868 442.293945,662.703186 
	C431.315613,669.281738 413.605225,667.054382 403.239899,657.635620 
	C393.048279,648.374695 390.481598,634.830566 396.511230,622.129883 
	C403.923553,606.516724 425.450317,599.458984 441.094635,607.428467 
	C443.593475,608.701477 444.550690,610.455078 443.819702,613.068420 
	C443.373962,614.661926 442.601440,616.161560 442.106506,617.744202 
	C440.918854,621.541992 439.059021,622.460571 435.031311,620.829163 
	C424.972992,616.755249 414.020569,620.928589 410.518829,629.651367 
	C408.088898,635.704407 409.520020,641.035950 413.883484,646.108643 
z"/>
<path fill="#000000" opacity="1.000000" stroke="none" 
	d="
M624.304260,664.708252 
	C620.716980,665.943481 617.388977,665.105469 614.083984,665.221924 
	C611.489380,665.313477 610.697998,663.595276 610.698486,661.288940 
	C610.702515,643.965332 610.702698,626.641663 610.688721,609.318054 
	C610.686584,606.668457 611.980225,605.212585 614.599182,605.191528 
	C623.592651,605.119202 632.595703,604.871155 641.577454,605.189026 
	C647.659241,605.404297 645.618652,610.522644 645.980164,613.993164 
	C646.355652,617.599060 644.552856,619.175903 640.965393,619.083069 
	C637.303711,618.988281 633.636353,619.136414 629.972656,619.089294 
	C626.938599,619.050293 625.863098,620.604248 625.934143,623.459106 
	C626.001343,626.157593 626.232605,628.591248 629.789307,628.600037 
	C633.119690,628.608276 636.461792,628.775330 639.776917,628.550415 
	C642.741333,628.349304 644.002075,629.438049 644.277710,632.400208 
	C645.096008,641.194641 644.322632,642.131714 635.320129,642.140564 
	C624.305359,642.151367 625.607788,641.196838 625.329163,652.080261 
	C625.223938,656.191162 626.206787,660.393616 624.304260,664.708252 
z"/>
<path fill="#000000" opacity="1.000000" stroke="none" 
	d="
M549.093018,639.994019 
	C549.076172,634.329834 548.950012,629.161743 549.077026,623.999939 
	C549.166748,620.352356 547.628418,619.092346 544.010376,619.033936 
	C535.746643,618.900452 534.175293,616.615601 535.714172,608.363708 
	C536.197632,605.771362 537.852722,605.151062 539.985291,605.141113 
	C551.315735,605.088257 562.646545,605.067749 573.977051,605.099976 
	C578.419983,605.112610 578.337463,608.353821 578.228943,611.458740 
	C578.117676,614.643860 579.178955,618.355469 574.055786,618.994873 
	C564.269592,620.216064 564.279907,620.320984 564.279663,630.320435 
	C564.279419,640.151794 564.151550,649.985901 564.350952,659.813232 
	C564.437927,664.103210 563.077576,666.128174 558.562134,665.436890 
	C556.929749,665.187012 555.235474,665.302185 553.570007,665.316162 
	C550.610779,665.341064 549.490051,663.897156 549.484253,660.967346 
	C549.470764,654.142273 549.236572,647.317566 549.093018,639.994019 
z"/>
<path fill="#000000" opacity="1.000000" stroke="none" 
	d="
M154.060608,501.082733 
	C155.363571,498.836273 157.213501,497.060028 155.627701,493.833771 
	C149.359619,495.179047 143.827515,498.519836 137.990921,501.025208 
	C136.147949,501.816284 134.287689,502.976776 132.737549,500.579590 
	C130.922134,497.772095 130.610855,495.531616 134.395813,493.878693 
	C139.347443,491.716217 144.490204,489.837250 149.511765,486.363220 
	C145.387695,483.996796 142.201645,485.432129 139.053101,486.760590 
	C136.755264,487.730103 134.495575,488.799042 132.263443,489.912964 
	C129.454849,491.314667 127.983932,489.982422 126.757050,487.568024 
	C125.354546,484.808014 126.816116,483.661774 129.068771,482.650238 
	C138.477249,478.425323 147.877182,474.180298 157.241531,469.858795 
	C159.627213,468.757843 161.239777,468.961365 162.521820,471.496735 
	C163.847305,474.117920 163.563187,475.882446 160.664673,476.989685 
	C159.435562,477.459167 158.181458,478.037994 157.869049,479.645081 
	C158.851410,482.149628 160.718842,482.020538 162.749023,481.137482 
	C165.266388,480.042542 166.729660,480.871643 167.866180,483.309601 
	C168.893661,485.513580 168.808319,487.075897 166.549744,488.284637 
	C165.339951,488.932098 164.209656,489.835693 164.316757,491.340668 
	C164.889725,499.392548 161.925842,505.941406 154.609970,511.654694 
	C163.405869,515.405518 171.158249,518.711365 179.671585,522.341736 
	C175.061646,525.917847 171.484406,527.556641 166.606400,525.325012 
	C159.960052,522.284363 153.054184,519.810852 146.259583,517.094299 
	C144.704422,516.472534 143.200546,515.799805 142.221741,514.315125 
	C140.200790,511.249573 139.529999,508.788788 143.896713,506.888824 
	C147.347931,505.387177 151.213272,504.423645 154.060608,501.082733 
z"/>
<path fill="#000000" opacity="1.000000" stroke="none" 
	d="
M516.301392,666.094727 
	C513.264587,665.737183 512.745483,663.971497 512.746338,661.763123 
	C512.752991,644.313843 512.773132,626.864502 512.707520,609.415466 
	C512.695374,606.190613 514.175842,605.113525 517.245300,604.950134 
	C528.055420,604.374817 528.175476,604.452087 528.149902,615.112732 
	C528.115601,629.404480 528.159241,643.696411 528.147644,657.988220 
	C528.141052,666.174133 528.121643,666.175415 519.750671,666.174194 
	C518.753784,666.174072 517.756958,666.151001 516.301392,666.094727 
z"/>
</svg>